<svg width="276" height="70" viewBox="0 0 276 70" fill="none" xmlns="http://www.w3.org/2000/svg">
<path d="M168.828 53.1785H168.737C168.782 53.1785 168.782 53.2242 168.828 53.2242H168.874L168.828 53.1785ZM168.828 53.2242C168.462 53.2242 167.503 53.4069 166.498 53.4069C163.346 53.4069 162.249 51.945 162.249 50.0262V37.3255H168.691C169.056 37.3255 169.33 37.0057 169.33 36.5488V29.6502C169.33 29.2847 169.011 28.9649 168.691 28.9649H162.249V20.376C162.249 20.0562 162.021 19.8734 161.655 19.8734H152.883C152.518 19.8734 152.335 20.1019 152.335 20.376V29.1934C152.335 29.1934 147.904 30.2898 147.63 30.3355C147.31 30.4269 147.127 30.701 147.127 31.0208V36.5488C147.127 37.0057 147.447 37.3255 147.812 37.3255H152.29V50.6658C152.29 60.5796 159.188 61.5847 163.894 61.5847C166.041 61.5847 168.645 60.8994 169.056 60.671C169.285 60.5796 169.422 60.3055 169.422 60.0314V53.9551C169.422 53.5897 169.193 53.3155 168.828 53.2242ZM265.042 44.3154C265.042 36.96 262.073 36.0006 258.966 36.3204C256.545 36.4574 254.58 37.6909 254.58 37.6909V51.9906C254.58 51.9906 256.545 53.3612 259.514 53.4526C263.672 53.544 265.042 52.0363 265.042 44.3154ZM274.911 43.6758C274.911 57.61 270.388 61.5847 262.53 61.5847C255.86 61.5847 252.296 58.2039 252.296 58.2039C252.296 58.2039 252.159 60.0771 251.931 60.3055C251.794 60.5339 251.611 60.6253 251.337 60.6253H245.352C244.941 60.6253 244.575 60.3055 244.575 59.94L244.667 14.848C244.667 14.4825 244.986 14.1627 245.352 14.1627H253.986C254.352 14.1627 254.672 14.4825 254.672 14.848V30.1528C254.672 30.1528 258.007 28.0055 262.895 28.0055L262.85 27.9142C267.692 27.9142 274.911 29.7416 274.911 43.6758ZM239.504 29.0106H230.961C230.504 29.0106 230.275 29.3304 230.275 29.7873V51.8536C230.275 51.8536 228.037 53.4069 224.976 53.4069C221.961 53.4069 221.047 52.0363 221.047 48.9754V29.6959C221.047 29.3304 220.727 29.0106 220.362 29.0106H211.681C211.316 29.0106 210.996 29.3304 210.996 29.6959V50.483C210.996 59.3918 215.976 61.6304 222.829 61.6304C228.494 61.6304 233.062 58.5237 233.062 58.5237C233.062 58.5237 233.291 60.1227 233.382 60.3512C233.474 60.5339 233.748 60.7167 234.022 60.7167H239.458C239.915 60.7167 240.144 60.3969 240.144 60.0314L240.235 29.6959C240.281 29.3304 239.915 29.0106 239.504 29.0106ZM143.289 28.9649H134.655C134.289 28.9649 133.97 29.3304 133.97 29.7873V59.5745C133.97 60.3969 134.518 60.671 135.203 60.671H143.015C143.838 60.671 144.02 60.3055 144.02 59.5745V29.6502C143.975 29.2847 143.655 28.9649 143.289 28.9649ZM138.995 15.2135C135.888 15.2135 133.376 17.6805 133.376 20.8328C133.376 23.9395 135.843 26.4522 138.995 26.4522C142.056 26.4522 144.523 23.9852 144.523 20.8328C144.523 17.7262 142.056 15.2135 138.995 15.2135ZM205.971 14.2084H197.382C197.016 14.2084 196.696 14.5282 196.696 14.8937V31.4777H183.265V14.8937C183.265 14.5282 182.945 14.2084 182.579 14.2084H173.945C173.579 14.2084 173.259 14.5282 173.259 14.8937V59.9857C173.259 60.3512 173.625 60.671 173.945 60.671H182.579C182.945 60.671 183.265 60.3512 183.265 59.9857V40.7062H196.696L196.605 59.9857C196.605 60.3512 196.925 60.671 197.29 60.671H205.925C206.29 60.671 206.61 60.3512 206.61 59.9857V14.8937C206.656 14.5282 206.336 14.2084 205.971 14.2084ZM129.355 34.1731V57.473C129.355 57.61 129.31 57.9298 129.127 57.9755C129.127 57.9755 124.056 61.5847 115.695 61.5847C105.599 61.5847 93.5831 58.4324 93.5831 37.5539C93.5831 16.6754 104.045 12.3809 114.279 12.4266C123.142 12.4266 126.705 14.4368 127.254 14.8023C127.391 15.0307 127.482 15.1678 127.482 15.3505L125.837 22.6146C125.837 22.9801 125.472 23.4369 125.015 23.2999C123.553 22.843 121.36 21.975 116.198 21.975C110.213 21.975 103.817 23.6654 103.817 37.1427C103.817 50.5744 109.893 52.1734 114.279 52.1734C118.025 52.1734 119.35 51.7165 119.35 51.7165V42.3966H113.365C112.908 42.3966 112.588 42.0768 112.588 41.7113V34.2188C112.588 33.8533 112.908 33.5335 113.365 33.5335H128.579C129.035 33.4878 129.355 33.8076 129.355 34.1731Z" fill="#24292E"/>
<path fill-rule="evenodd" clip-rule="evenodd" d="M35.562 0.868164C16.3282 0.868164 0.749268 16.4471 0.749268 35.6809C0.749268 51.077 10.7088 64.0975 24.5516 68.7118C26.2877 68.9859 26.973 67.9808 26.973 67.0671C26.973 66.2447 26.9273 63.5036 26.9273 60.5797C18.2013 62.1787 15.917 58.4325 15.2317 56.5136C14.8205 55.5086 13.1302 52.4019 11.6682 51.5796C10.4347 50.94 8.69862 49.2953 11.6225 49.2496C14.3637 49.2039 16.3282 51.7623 16.9678 52.8131C20.1201 58.067 25.0999 56.605 27.1101 55.6913C27.4299 53.4527 28.3436 51.8994 29.3487 51.0313C21.6277 50.1633 13.4956 47.148 13.4956 33.8534C13.4956 30.0615 14.8662 26.9092 17.0592 24.4878C16.6937 23.6198 15.5058 20.0563 17.4246 15.2592C17.4246 15.2592 20.3485 14.3455 27.0187 18.8227C29.8055 18.0461 32.7751 17.6349 35.699 17.6349C38.6686 17.6349 41.5925 18.0461 44.3793 18.8227C51.0495 14.2998 53.9277 15.2592 53.9277 15.2592C55.8465 20.0563 54.613 23.6198 54.2932 24.4878C56.5318 26.9092 57.8567 30.0158 57.8567 33.8534C57.8567 47.1937 49.7246 50.1633 41.958 51.0313C43.2372 52.1278 44.3337 54.1837 44.3337 57.473C44.3337 62.133 44.288 65.8793 44.288 67.0214C44.288 67.9351 44.9276 69.0316 46.6636 68.6661C60.8263 63.8691 70.3746 50.5745 70.3746 35.6352C70.3746 16.4471 54.7957 0.868164 35.562 0.868164Z" fill="#24292E"/>
</svg>
