<svg width="563" height="382" viewBox="0 0 563 382" fill="none" xmlns="http://www.w3.org/2000/svg">
<g clip-path="url(#clip0_159_177)">
<path d="M135.883 347.577H114.225C113.459 311.02 111.349 276.651 107.901 244.446H107.708L74.7333 347.577H58.2437L25.4655 244.446H25.2771C22.8455 275.366 21.3138 309.743 20.6776 347.577H0.936157C2.20845 301.57 5.40592 258.437 10.516 218.176H37.3597L68.602 313.259H68.7946L100.229 218.176H125.914C131.539 265.334 134.862 308.471 135.883 347.577ZM229.811 252.105C220.993 299.958 209.358 334.729 194.919 356.433C183.669 373.14 171.344 381.502 157.922 381.502C154.344 381.502 149.928 380.422 144.697 378.28V366.741C147.254 367.109 150.255 367.319 153.703 367.319C159.973 367.319 165.012 365.594 168.854 362.137C173.449 357.927 175.747 353.194 175.747 347.958C175.747 344.367 173.955 337.026 170.381 325.91L146.614 252.101H167.891L184.95 307.303C188.783 319.838 190.382 328.589 189.742 333.574C199.071 308.659 205.587 281.493 209.299 252.097H229.811V252.105Z" fill="#5D87A1"/>
<path d="M518.106 347.577H456.584V218.176H477.28V331.648H518.106V347.577ZM440.48 350.703L416.691 338.964C418.801 337.231 420.818 335.356 422.634 333.184C432.746 321.307 437.789 303.742 437.789 280.476C437.789 237.666 420.989 216.25 387.378 216.25C370.897 216.25 358.04 221.683 348.845 232.552C338.742 244.438 333.699 261.94 333.699 285.08C333.699 307.826 338.169 324.513 347.113 335.097C355.295 344.685 367.628 349.485 384.122 349.485C390.274 349.485 395.92 348.732 401.064 347.213L432.034 365.243L440.48 350.703ZM363.418 321.683C358.178 313.254 355.558 299.72 355.558 281.058C355.558 248.476 365.456 232.167 385.273 232.167C395.631 232.167 403.223 236.067 408.078 243.852C413.31 252.293 415.942 265.707 415.942 284.109C415.942 316.958 406.036 333.385 386.232 333.385C375.869 333.389 368.277 329.501 363.418 321.683ZM324.68 311.71C324.68 322.684 320.654 331.686 312.61 338.738C304.558 345.761 293.76 349.28 280.229 349.28C267.573 349.28 255.303 345.238 243.425 337.194L248.987 326.082C259.207 331.2 268.461 333.745 276.768 333.745C284.565 333.745 290.659 332.017 295.078 328.589C299.494 325.149 302.126 320.323 302.126 314.221C302.126 306.533 296.765 299.962 286.93 294.459C277.861 289.478 259.722 279.066 259.722 279.066C249.891 271.901 244.969 264.208 244.969 251.536C244.969 241.048 248.64 232.581 255.985 226.14C263.338 219.674 272.826 216.451 284.456 216.451C296.468 216.451 307.387 219.67 317.222 226.04L312.233 237.155C303.821 233.581 295.518 231.794 287.328 231.794C280.694 231.794 275.571 233.389 272.01 236.59C268.419 239.78 266.205 243.86 266.205 248.866C266.205 256.516 271.679 263.17 281.782 268.783C290.973 273.771 309.563 284.364 309.563 284.364C319.645 291.517 324.68 299.138 324.68 311.71Z" fill="#F8981D"/>
<path d="M544.088 174.834C531.574 174.516 521.886 175.776 513.754 179.216C511.406 180.154 507.673 180.154 507.346 183.121C508.614 184.377 508.761 186.402 509.862 188.135C511.737 191.261 515.005 195.467 517.989 197.66C521.266 200.171 524.556 202.657 528.004 204.846C534.085 208.609 540.978 210.798 546.905 214.547C550.357 216.728 553.789 219.549 557.246 221.897C558.945 223.148 560.033 225.178 562.239 225.96V225.483C561.134 224.077 560.82 222.043 559.736 220.478L555.04 215.95C550.504 209.856 544.866 204.537 538.785 200.167C533.78 196.719 522.831 192.031 520.802 186.264L520.483 185.946C523.924 185.624 528.004 184.377 531.273 183.418C536.592 182.016 541.443 182.334 546.9 180.932C549.411 180.304 551.902 179.518 554.421 178.743V177.333C551.592 174.516 549.575 170.775 546.599 168.113C538.639 161.237 529.867 154.511 520.802 148.882C515.947 145.747 509.703 143.73 504.534 141.064C502.671 140.123 499.533 139.658 498.436 138.093C495.632 134.653 494.054 130.124 492.02 126.052C487.5 117.46 483.11 107.926 479.209 98.84C476.389 92.7464 474.673 86.6612 471.232 81.0237C455.119 54.4479 437.621 38.3517 410.727 22.5527C404.948 19.2631 398.071 17.8611 390.726 16.1368L378.995 15.5174C376.493 14.4209 373.986 11.4452 371.801 10.039C362.878 4.41415 339.906 -7.77726 333.344 8.31892C329.116 18.4931 339.596 28.4956 343.195 33.656C345.853 37.2385 349.297 41.3148 351.156 45.3828C352.256 48.0404 352.566 50.8612 353.667 53.6694C356.169 60.5499 358.509 68.2045 361.798 74.6246C363.514 77.8974 365.385 81.3376 367.578 84.3007C368.834 86.0334 371.018 86.7993 371.496 89.6243C369.315 92.738 369.143 97.438 367.892 101.347C362.267 119.013 364.464 140.897 372.437 153.879C374.932 157.788 380.883 166.393 388.843 163.095C395.891 160.283 394.33 151.372 396.355 143.559C396.82 141.671 396.515 140.432 397.452 139.193V139.499C399.632 143.872 401.834 148.087 403.855 152.473C408.706 160.128 417.152 168.105 424.187 173.407C427.933 176.236 430.9 181.074 435.591 182.803V182.334H435.282C434.332 180.932 432.942 180.304 431.695 179.216C428.874 176.4 425.752 172.959 423.563 169.837C417.009 161.078 411.209 151.381 406.061 141.374C403.541 136.519 401.369 131.212 399.339 126.366C398.394 124.495 398.394 121.674 396.824 120.733C394.472 124.169 391.044 127.144 389.329 131.355C386.353 138.089 386.043 146.371 384.938 154.984L384.323 155.285C379.343 154.034 377.61 148.882 375.718 144.509C371.035 133.401 370.248 115.572 374.312 102.757C375.4 99.4803 380.109 89.1597 378.229 86.0376C377.288 83.0452 374.157 81.3418 372.441 78.9856C370.424 76.0225 368.214 72.2725 366.808 68.983C363.058 60.2318 361.171 50.5348 357.132 41.7878C355.245 37.7114 351.968 33.4927 349.314 29.7386C346.334 25.52 343.057 22.5485 340.701 17.5472C339.923 15.8271 338.83 13.0147 340.082 11.1439C340.387 9.88835 341.023 9.41962 342.27 9.10573C344.296 7.39399 350.084 9.57028 352.114 10.5119C357.91 12.8556 362.757 15.0445 367.595 18.3257C369.784 19.8951 372.132 22.8666 374.94 23.6492H378.229C383.222 24.7373 388.851 23.9505 393.551 25.3651C401.834 28.0269 409.338 31.9317 416.068 36.1461C436.546 49.1327 453.433 67.5852 464.833 89.6243C466.704 93.2152 467.499 96.5047 469.207 100.25C472.5 107.918 476.573 115.736 479.841 123.24C483.127 130.585 486.257 138.084 490.949 144.186C493.288 147.468 502.688 149.188 506.903 150.908C510.021 152.31 514.875 153.557 517.688 155.277C523.007 158.554 528.306 162.317 533.307 165.92C535.797 167.795 543.623 171.704 544.088 174.834ZM384.608 38.9669C382.449 38.9445 380.297 39.2091 378.209 39.7538V40.0676H378.51C379.77 42.5662 381.958 44.2988 383.52 46.4793C384.779 48.9862 385.872 51.4722 387.106 53.975L387.408 53.6653C389.613 52.1042 390.71 49.6015 390.71 45.8474C389.76 44.7425 389.613 43.6627 388.822 42.5662C387.901 41.0009 385.872 40.2225 384.608 38.9669Z" fill="#5D87A1"/>
<path d="M558.979 347.556H562.218V331.703H557.359L553.396 342.522L549.089 331.703H544.41V347.556H547.469V335.495H547.641L552.153 347.556H554.484L558.979 335.495V347.556ZM532.884 347.556H536.312V334.39H540.798V331.699H528.209V334.39H532.876L532.884 347.556Z" fill="#F8981D"/>
</g>
<defs>
<clipPath id="clip0_159_177">
<rect width="563" height="382" fill="white"/>
</clipPath>
</defs>
</svg>
