<svg width="1008" height="411" viewBox="0 0 1008 411" fill="none" xmlns="http://www.w3.org/2000/svg">
<g clip-path="url(#clip0_15_103)">
<path fill-rule="evenodd" clip-rule="evenodd" d="M600.376 53.0945H208.429C205.316 53.0945 202.499 54.3552 200.46 56.3933C198.42 58.432 197.159 61.2485 197.159 64.3596V332.775C197.159 335.885 198.421 338.701 200.461 340.741C202.501 342.779 205.318 344.04 208.429 344.04H600.376C603.489 344.04 606.306 342.779 608.345 340.741C610.385 338.703 611.646 335.886 611.646 332.775V64.3596C611.646 61.2502 610.384 58.4333 608.344 56.3941C606.305 54.3558 603.488 53.0945 600.376 53.0945Z" fill="#FFF9F2" stroke="#141C3A" stroke-width="8"/>
<path fill-rule="evenodd" clip-rule="evenodd" d="M581.065 78.0442H227.337C226.005 78.0442 224.798 78.5852 223.924 79.4606C223.051 80.3347 222.511 81.5421 222.511 82.8758V282.871C222.511 284.204 223.051 285.412 223.923 286.286C224.797 287.161 226.004 287.702 227.337 287.702H581.065C582.397 287.702 583.604 287.161 584.478 286.286C585.351 285.412 585.891 284.204 585.891 282.871V82.8758C585.891 81.5419 585.351 80.3344 584.478 79.4603C583.605 78.5852 582.398 78.0442 581.065 78.0442Z" fill="#42B0D3" stroke="#42B0D3" stroke-width="8"/>
<path fill-rule="evenodd" clip-rule="evenodd" d="M434.322 344.04H374.885L370.873 395.952H438.334L434.322 344.04Z" fill="#FFF9F2" stroke="#141C3A" stroke-width="8"/>
<path fill-rule="evenodd" clip-rule="evenodd" d="M462.753 407.622H346.456C346.345 407.622 346.245 407.577 346.172 407.504C346.098 407.43 346.053 407.328 346.053 407.216V401.787C346.053 400.175 346.706 398.717 347.763 397.661C348.819 396.605 350.279 395.952 351.891 395.952H457.318C458.93 395.952 460.389 396.605 461.446 397.661C462.502 398.717 463.156 400.176 463.156 401.787V407.216C463.156 407.328 463.112 407.43 463.038 407.504C462.965 407.577 462.864 407.622 462.753 407.622Z" fill="#FFF9F2" stroke="#141C3A" stroke-width="8"/>
<path d="M404.604 325.529C408.715 325.529 412.049 322.196 412.049 318.085C412.049 313.973 408.715 310.64 404.604 310.64C400.492 310.64 397.159 313.973 397.159 318.085C397.159 322.196 400.492 325.529 404.604 325.529Z" stroke="#141C3A" stroke-width="8"/>
<path d="M228.949 251.083H168.587C163.253 251.083 158.929 255.407 158.929 260.74V397.964C158.929 403.298 163.253 407.622 168.587 407.622H228.949C234.283 407.622 238.607 403.298 238.607 397.964V260.74C238.607 255.407 234.283 251.083 228.949 251.083Z" fill="#FFF9F2" stroke="#141C3A" stroke-width="8"/>
<path fill-rule="evenodd" clip-rule="evenodd" d="M238.607 268.789H158.929V384.402H238.607V268.789Z" fill="#141C3A" stroke="#141C3A" stroke-width="8"/>
<path d="M216.474 258.326H181.464C180.575 258.326 179.854 259.047 179.854 259.936C179.854 260.825 180.575 261.545 181.464 261.545H216.474C217.363 261.545 218.084 260.825 218.084 259.936C218.084 259.047 217.363 258.326 216.474 258.326Z" fill="#141C3A"/>
<path d="M203.517 395.71C203.517 393.177 201.463 391.123 198.929 391.123C196.396 391.123 194.342 393.177 194.342 395.71C194.342 398.244 196.396 400.298 198.929 400.298C201.463 400.298 203.517 398.244 203.517 395.71Z" fill="#141C3A"/>
<path d="M181.464 332.37C184.798 332.37 187.501 329.668 187.501 326.334C187.501 323 184.798 320.298 181.464 320.298C178.131 320.298 175.428 323 175.428 326.334C175.428 329.668 178.131 332.37 181.464 332.37Z" fill="#42B0D3" stroke="#42B0D3" stroke-width="8"/>
<path d="M222.11 315.871H197.16C196.271 315.871 195.55 316.592 195.55 317.481C195.55 318.37 196.271 319.091 197.16 319.091H222.11C222.999 319.091 223.719 318.37 223.719 317.481C223.719 316.592 222.999 315.871 222.11 315.871Z" fill="#FFF9F2"/>
<path d="M214.061 324.724H197.16C196.271 324.724 195.55 325.445 195.55 326.334C195.55 327.223 196.271 327.944 197.16 327.944H214.061C214.95 327.944 215.671 327.223 215.671 326.334C215.671 325.445 214.95 324.724 214.061 324.724Z" fill="#FFF9F2"/>
<path d="M206.013 333.578H197.16C196.271 333.578 195.55 334.298 195.55 335.187C195.55 336.076 196.271 336.797 197.16 336.797H206.013C206.902 336.797 207.623 336.076 207.623 335.187C207.623 334.298 206.902 333.578 206.013 333.578Z" fill="#FFF9F2"/>
<path d="M118.085 327.139C152.2 327.139 179.856 299.483 179.856 265.368C179.856 231.253 152.2 203.598 118.085 203.598C83.9701 203.598 56.3145 231.253 56.3145 265.368C56.3145 299.483 83.9701 327.139 118.085 327.139Z" fill="#EAC0A2" stroke="#141C3A" stroke-width="8"/>
<path fill-rule="evenodd" clip-rule="evenodd" d="M783.079 190.72H507.82C504.709 190.72 501.893 191.981 499.855 194.02C497.817 196.059 496.556 198.876 496.556 201.988V379.453C496.556 382.562 497.817 385.38 499.856 387.419C501.894 389.459 504.71 390.72 507.82 390.72H783.079C786.19 390.72 789.006 389.459 791.044 387.42C793.082 385.381 794.343 382.564 794.343 379.453V201.988C794.343 198.878 793.082 196.061 791.043 194.021C789.005 191.982 786.189 190.72 783.079 190.72Z" fill="#FFF9F2" stroke="#141C3A" stroke-width="8"/>
<path fill-rule="evenodd" clip-rule="evenodd" d="M814.465 390.72H476.43C476.32 390.72 476.221 390.765 476.149 390.837C476.076 390.91 476.031 391.011 476.031 391.123V399.171C476.031 401.505 476.977 403.617 478.507 405.147C480.037 406.676 482.15 407.622 484.485 407.622H806.411C808.745 407.622 810.859 406.676 812.388 405.146C813.918 403.617 814.864 401.505 814.864 399.171V391.123C814.864 391.011 814.819 390.911 814.746 390.838C814.674 390.766 814.575 390.72 814.465 390.72Z" fill="#FFF9F2" stroke="#141C3A" stroke-width="8"/>
<path fill-rule="evenodd" clip-rule="evenodd" d="M667.699 390.901L622.635 390.901C623.42 392.967 624.737 394.771 626.419 396.144C628.567 397.898 631.311 398.949 634.3 398.949H656.035C659.023 398.949 661.766 397.897 663.914 396.143C665.596 394.77 666.914 392.967 667.699 390.901Z" fill="#FFF9F2" stroke="#141C3A" stroke-width="8"/>
<path d="M779.215 208.024H511.445C509.667 208.024 508.226 209.465 508.226 211.243V370.539C508.226 372.317 509.667 373.758 511.445 373.758H779.215C780.993 373.758 782.434 372.317 782.434 370.539V211.243C782.434 209.465 780.993 208.024 779.215 208.024Z" fill="#EAC0A2"/>
<path d="M395.548 83.6781C396.659 83.6781 397.56 82.7773 397.56 81.6661C397.56 80.5548 396.659 79.654 395.548 79.654C394.437 79.654 393.536 80.5548 393.536 81.6661C393.536 82.7773 394.437 83.6781 395.548 83.6781Z" fill="#293347"/>
<path fill-rule="evenodd" clip-rule="evenodd" d="M463.155 26.1327H283.678V201.184C283.678 203.407 284.578 205.419 286.035 206.874C287.492 208.331 289.506 209.231 291.729 209.231H455.103C457.327 209.231 459.34 208.331 460.797 206.874C462.254 205.418 463.155 203.406 463.155 201.184V26.1327Z" fill="#141C3A" stroke="#141C3A" stroke-width="8"/>
<path fill-rule="evenodd" clip-rule="evenodd" d="M455.103 4H291.729C289.506 4 287.493 4.90093 286.036 6.35765C284.579 7.81438 283.678 9.82687 283.678 12.0498V22.9135H463.155V12.0498C463.155 9.82753 462.253 7.815 460.796 6.35809C459.339 4.90132 457.326 4 455.103 4Z" fill="#FFF9F2" stroke="#141C3A" stroke-width="8"/>
<path d="M297.763 17.2797C299.764 17.2797 301.385 15.6582 301.385 13.658C301.385 11.6577 299.764 10.0362 297.763 10.0362C295.763 10.0362 294.142 11.6577 294.142 13.658C294.142 15.6582 295.763 17.2797 297.763 17.2797Z" fill="#141C3A"/>
<path d="M309.836 17.2797C311.836 17.2797 313.458 15.6582 313.458 13.658C313.458 11.6577 311.836 10.0362 309.836 10.0362C307.836 10.0362 306.214 11.6577 306.214 13.658C306.214 15.6582 307.836 17.2797 309.836 17.2797Z" fill="#42B0D3"/>
<path d="M321.906 17.2797C323.907 17.2797 325.528 15.6582 325.528 13.658C325.528 11.6577 323.907 10.0362 321.906 10.0362C319.906 10.0362 318.285 11.6577 318.285 13.658C318.285 15.6582 319.906 17.2797 321.906 17.2797Z" fill="#EAC0A2"/>
<path opacity="0.54" d="M308.628 140.418H304.604C303.715 140.418 302.994 141.139 302.994 142.028C302.994 142.917 303.715 143.638 304.604 143.638H308.628C309.517 143.638 310.238 142.917 310.238 142.028C310.238 141.139 309.517 140.418 308.628 140.418Z" fill="#535B6B"/>
<path opacity="0.54" d="M308.628 59.9357H304.604C303.715 59.9357 302.994 60.6563 302.994 61.5453C302.994 62.4343 303.715 63.155 304.604 63.155H308.628C309.517 63.155 310.238 62.4343 310.238 61.5453C310.238 60.6563 309.517 59.9357 308.628 59.9357Z" fill="#535B6B"/>
<path fill-rule="evenodd" clip-rule="evenodd" d="M316.677 59.9357H327.542C328.431 59.9357 329.151 60.6563 329.151 61.5453C329.151 62.4343 328.431 63.155 327.542 63.155H316.677C315.788 63.155 315.067 62.4343 315.067 61.5453C315.067 60.6563 315.788 59.9357 316.677 59.9357Z" fill="#42B0D3"/>
<path fill-rule="evenodd" clip-rule="evenodd" d="M334.784 59.9357H345.65C346.539 59.9357 347.259 60.6563 347.259 61.5453C347.259 62.4343 346.539 63.155 345.65 63.155H334.784C333.895 63.155 333.175 62.4343 333.175 61.5453C333.175 60.6563 333.895 59.9357 334.784 59.9357Z" fill="#EAC0A2"/>
<path fill-rule="evenodd" clip-rule="evenodd" d="M352.892 59.9357H373.013C373.902 59.9357 374.623 60.6563 374.623 61.5453C374.623 62.4343 373.902 63.155 373.013 63.155H352.892C352.003 63.155 351.283 62.4343 351.283 61.5453C351.283 60.6563 352.003 59.9357 352.892 59.9357Z" fill="#42B0D3"/>
<path fill-rule="evenodd" clip-rule="evenodd" d="M380.258 59.9357H410.037C410.926 59.9357 411.646 60.6563 411.646 61.5453C411.646 62.4343 410.926 63.155 410.037 63.155H380.258C379.369 63.155 378.648 62.4343 378.648 61.5453C378.648 60.6563 379.369 59.9357 380.258 59.9357Z" fill="#42B0D3"/>
<path opacity="0.54" d="M308.628 76.0322H304.604C303.715 76.0322 302.994 76.7528 302.994 77.6418C302.994 78.5308 303.715 79.2515 304.604 79.2515H308.628C309.517 79.2515 310.238 78.5308 310.238 77.6418C310.238 76.7528 309.517 76.0322 308.628 76.0322Z" fill="#535B6B"/>
<path opacity="0.54" d="M308.628 92.1288H304.604C303.715 92.1288 302.994 92.8495 302.994 93.7385C302.994 94.6275 303.715 95.3481 304.604 95.3481H308.628C309.517 95.3481 310.238 94.6275 310.238 93.7385C310.238 92.8495 309.517 92.1288 308.628 92.1288Z" fill="#535B6B"/>
<path opacity="0.54" d="M308.628 108.225H304.604C303.715 108.225 302.994 108.946 302.994 109.835C302.994 110.724 303.715 111.445 304.604 111.445H308.628C309.517 111.445 310.238 110.724 310.238 109.835C310.238 108.946 309.517 108.225 308.628 108.225Z" fill="#535B6B"/>
<path opacity="0.54" d="M308.628 124.322H304.604C303.715 124.322 302.994 125.043 302.994 125.932C302.994 126.821 303.715 127.541 304.604 127.541H308.628C309.517 127.541 310.238 126.821 310.238 125.932C310.238 125.043 309.517 124.322 308.628 124.322Z" fill="#535B6B"/>
<path opacity="0.54" d="M308.628 156.515H304.604C303.715 156.515 302.994 157.236 302.994 158.125C302.994 159.014 303.715 159.734 304.604 159.734H308.628C309.517 159.734 310.238 159.014 310.238 158.125C310.238 157.236 309.517 156.515 308.628 156.515Z" fill="#535B6B"/>
<path opacity="0.54" d="M308.628 172.612H304.604C303.715 172.612 302.994 173.332 302.994 174.221C302.994 175.11 303.715 175.831 304.604 175.831H308.628C309.517 175.831 310.238 175.11 310.238 174.221C310.238 173.332 309.517 172.612 308.628 172.612Z" fill="#535B6B"/>
<path d="M341.626 76.0322H316.677C315.788 76.0322 315.067 76.7528 315.067 77.6418C315.067 78.5308 315.788 79.2515 316.677 79.2515H341.626C342.515 79.2515 343.236 78.5308 343.236 77.6418C343.236 76.7528 342.515 76.0322 341.626 76.0322Z" fill="#42B0D3"/>
<path d="M393.939 76.0322H348.869C347.98 76.0322 347.259 76.7528 347.259 77.6418C347.259 78.5308 347.98 79.2515 348.869 79.2515H393.939C394.828 79.2515 395.549 78.5308 395.549 77.6418C395.549 76.7528 394.828 76.0322 393.939 76.0322Z" fill="#EAC0A2"/>
<path d="M418.085 76.0322H401.183C400.294 76.0322 399.574 76.7528 399.574 77.6418C399.574 78.5308 400.294 79.2515 401.183 79.2515H418.085C418.974 79.2515 419.694 78.5308 419.694 77.6418C419.694 76.7528 418.974 76.0322 418.085 76.0322Z" fill="#42B0D3"/>
<path d="M333.578 92.1288H316.677C315.788 92.1288 315.067 92.8495 315.067 93.7385C315.067 94.6275 315.788 95.3481 316.677 95.3481H333.578C334.467 95.3481 335.188 94.6275 335.188 93.7385C335.188 92.8495 334.467 92.1288 333.578 92.1288Z" fill="#EAC0A2"/>
<path d="M357.723 92.1288H340.822C339.933 92.1288 339.212 92.8495 339.212 93.7385C339.212 94.6275 339.933 95.3481 340.822 95.3481H357.723C358.612 95.3481 359.333 94.6275 359.333 93.7385C359.333 92.8495 358.612 92.1288 357.723 92.1288Z" fill="#42B0D3"/>
<path d="M373.818 92.1288H364.965C364.076 92.1288 363.355 92.8495 363.355 93.7385C363.355 94.6275 364.076 95.3481 364.965 95.3481H373.818C374.707 95.3481 375.428 94.6275 375.428 93.7385C375.428 92.8495 374.707 92.1288 373.818 92.1288Z" fill="#42B0D3"/>
<path d="M353.699 108.225H316.677C315.788 108.225 315.067 108.946 315.067 109.835C315.067 110.724 315.788 111.445 316.677 111.445H353.699C354.588 111.445 355.308 110.724 355.308 109.835C355.308 108.946 354.588 108.225 353.699 108.225Z" fill="#42B0D3"/>
<path d="M385.891 108.225H360.942C360.053 108.225 359.332 108.946 359.332 109.835C359.332 110.724 360.053 111.445 360.942 111.445H385.891C386.78 111.445 387.501 110.724 387.501 109.835C387.501 108.946 386.78 108.225 385.891 108.225Z" fill="#42B0D3"/>
<path d="M353.699 124.322H316.677C315.788 124.322 315.067 125.043 315.067 125.932C315.067 126.821 315.788 127.541 316.677 127.541H353.699C354.588 127.541 355.308 126.821 355.308 125.932C355.308 125.043 354.588 124.322 353.699 124.322Z" fill="#42B0D3"/>
<path d="M410.036 124.322H360.942C360.053 124.322 359.332 125.043 359.332 125.932C359.332 126.821 360.053 127.541 360.942 127.541H410.036C410.925 127.541 411.646 126.821 411.646 125.932C411.646 125.043 410.925 124.322 410.036 124.322Z" fill="#EAC0A2"/>
<path d="M341.626 140.418H316.677C315.788 140.418 315.067 141.139 315.067 142.028C315.067 142.917 315.788 143.638 316.677 143.638H341.626C342.515 143.638 343.236 142.917 343.236 142.028C343.236 141.139 342.515 140.418 341.626 140.418Z" fill="#42B0D3"/>
<path d="M373.819 140.418H348.869C347.98 140.418 347.259 141.139 347.259 142.028C347.259 142.917 347.98 143.638 348.869 143.638H373.819C374.708 143.638 375.428 142.917 375.428 142.028C375.428 141.139 374.708 140.418 373.819 140.418Z" fill="#EAC0A2"/>
<path d="M393.939 140.418H381.061C380.172 140.418 379.452 141.139 379.452 142.028C379.452 142.917 380.172 143.638 381.061 143.638H393.939C394.828 143.638 395.548 142.917 395.548 142.028C395.548 141.139 394.828 140.418 393.939 140.418Z" fill="#42B0D3"/>
<path d="M365.771 156.515H316.677C315.788 156.515 315.067 157.236 315.067 158.125C315.067 159.014 315.788 159.734 316.677 159.734H365.771C366.66 159.734 367.381 159.014 367.381 158.125C367.381 157.236 366.66 156.515 365.771 156.515Z" fill="#42B0D3"/>
<path d="M337.602 172.612H316.677C315.788 172.612 315.067 173.332 315.067 174.221C315.067 175.11 315.788 175.831 316.677 175.831H337.602C338.491 175.831 339.212 175.11 339.212 174.221C339.212 173.332 338.491 172.612 337.602 172.612Z" fill="#EAC0A2"/>
<path fill-rule="evenodd" clip-rule="evenodd" d="M864.362 149.272H643.839V306.212C643.839 309.324 645.1 312.142 647.14 314.181C649.18 316.22 651.998 317.481 655.11 317.481H853.091C856.205 317.481 859.022 316.22 861.061 314.181C863.101 312.142 864.362 309.324 864.362 306.212V149.272Z" fill="#FFF9F2" stroke="#141C3A" stroke-width="8"/>
<path fill-rule="evenodd" clip-rule="evenodd" d="M853.091 129.151H655.11C651.996 129.151 649.179 130.411 647.14 132.449C645.1 134.488 643.839 137.304 643.839 140.416V152.491H864.362V140.416C864.362 137.305 863.1 134.488 861.06 132.45C859.021 130.412 856.203 129.151 853.091 129.151Z" fill="#141C3A" stroke="#141C3A" stroke-width="8"/>
<path d="M661.142 144.443C663.142 144.443 664.764 142.821 664.764 140.821C664.764 138.821 663.142 137.199 661.142 137.199C659.142 137.199 657.521 138.821 657.521 140.821C657.521 142.821 659.142 144.443 661.142 144.443Z" fill="#FFF9F2"/>
<path d="M673.215 144.443C675.215 144.443 676.837 142.821 676.837 140.821C676.837 138.821 675.215 137.199 673.215 137.199C671.215 137.199 669.593 138.821 669.593 140.821C669.593 142.821 671.215 144.443 673.215 144.443Z" fill="#42B0D3"/>
<path d="M685.288 144.443C687.288 144.443 688.909 142.821 688.909 140.821C688.909 138.821 687.288 137.199 685.288 137.199C683.288 137.199 681.666 138.821 681.666 140.821C681.666 142.821 683.288 144.443 685.288 144.443Z" fill="#EAC0A2"/>
<path d="M780.257 273.618C802.482 273.618 820.499 255.601 820.499 233.376C820.499 211.152 802.482 193.135 780.257 193.135C758.032 193.135 740.016 211.152 740.016 233.376C740.016 255.601 758.032 273.618 780.257 273.618Z" stroke="#42B0D3" stroke-width="9"/>
<path fill-rule="evenodd" clip-rule="evenodd" d="M785.489 188.306H775.831V197.964H785.489V188.306Z" fill="#FFF9F2" stroke="#EAC0A2" stroke-width="8"/>
<path fill-rule="evenodd" clip-rule="evenodd" d="M785.086 268.789H775.428V278.447H785.086V268.789Z" fill="#FFF9F2" stroke="#EAC0A2" stroke-width="8"/>
<path fill-rule="evenodd" clip-rule="evenodd" d="M744.844 228.95H735.187V238.608H744.844V228.95Z" fill="#FFF9F2" stroke="#EAC0A2" stroke-width="8"/>
<path d="M820.499 197.159V227.34" stroke="#141C3A" stroke-width="8" stroke-linecap="square"/>
<path d="M820.499 239.412V269.594" stroke="#141C3A" stroke-width="8" stroke-linecap="square"/>
<path d="M820.499 200.781C823.166 200.781 825.328 198.619 825.328 195.952C825.328 193.285 823.166 191.123 820.499 191.123C817.832 191.123 815.67 193.285 815.67 195.952C815.67 198.619 817.832 200.781 820.499 200.781Z" fill="#141C3A"/>
<path d="M820.499 277.239C823.166 277.239 825.328 275.077 825.328 272.41C825.328 269.743 823.166 267.581 820.499 267.581C817.832 267.581 815.67 269.743 815.67 272.41C815.67 275.077 817.832 277.239 820.499 277.239Z" fill="#141C3A"/>
<path fill-rule="evenodd" clip-rule="evenodd" d="M824.925 228.95H815.267V238.608H824.925V228.95Z" fill="#FFF9F2" stroke="#EAC0A2" stroke-width="8"/>
<path d="M705.006 183.074H686.495C683.828 183.074 681.666 185.236 681.666 187.903V206.414C681.666 209.081 683.828 211.243 686.495 211.243H705.006C707.673 211.243 709.835 209.081 709.835 206.414V187.903C709.835 185.236 707.673 183.074 705.006 183.074Z" fill="#141C3A"/>
<path d="M705.006 219.292H686.495C683.828 219.292 681.666 221.454 681.666 224.121V242.632C681.666 245.299 683.828 247.461 686.495 247.461H705.006C707.673 247.461 709.835 245.299 709.835 242.632V224.121C709.835 221.454 707.673 219.292 705.006 219.292Z" fill="#EAC0A2"/>
<path d="M705.006 255.509H686.495C683.828 255.509 681.666 257.671 681.666 260.338V278.849C681.666 281.516 683.828 283.678 686.495 283.678H705.006C707.673 283.678 709.835 281.516 709.835 278.849V260.338C709.835 257.671 707.673 255.509 705.006 255.509Z" fill="#42B0D3"/>
<path d="M979.854 393.135C993.189 393.135 1004 382.325 1004 368.99C1004 355.655 993.189 344.845 979.854 344.845C966.519 344.845 955.709 355.655 955.709 368.99C955.709 382.325 966.519 393.135 979.854 393.135Z" fill="#FFF9F2" stroke="#141C3A" stroke-width="8"/>
<path d="M979.855 383.074C987.633 383.074 993.939 376.769 993.939 368.99C993.939 361.211 987.633 354.905 979.855 354.905C972.076 354.905 965.77 361.211 965.77 368.99C965.77 376.769 972.076 383.074 979.855 383.074Z" fill="#FFF9F2" stroke="#141C3A" stroke-width="8"/>
<path d="M947.661 340.419C952.106 340.419 955.709 336.815 955.709 332.37C955.709 327.925 952.106 324.322 947.661 324.322C943.216 324.322 939.613 327.925 939.613 332.37C939.613 336.815 943.216 340.419 947.661 340.419Z" fill="#FFF9F2" stroke="#141C3A" stroke-width="8"/>
<path fill-rule="evenodd" clip-rule="evenodd" d="M980.632 330.358H912.25C911.806 330.358 911.403 330.538 911.112 330.83C910.821 331.121 910.641 331.523 910.641 331.968V399.574C910.641 401.796 911.541 403.808 912.998 405.264C914.454 406.721 916.466 407.622 918.689 407.622H974.194C976.416 407.622 978.428 406.721 979.885 405.264C981.341 403.808 982.242 401.796 982.242 399.574V331.968C982.242 331.523 982.062 331.121 981.771 330.83C981.479 330.538 981.077 330.358 980.632 330.358Z" fill="#FFF9F2" stroke="#141C3A" stroke-width="8"/>
<path fill-rule="evenodd" clip-rule="evenodd" d="M962.551 352.089H948.064C947.175 352.089 946.37 352.449 945.788 353.031C945.205 353.614 944.845 354.419 944.845 355.308V374.624C944.845 375.513 945.205 376.318 945.788 376.9C946.37 377.483 947.175 377.843 948.064 377.843H962.551C963.44 377.843 964.245 377.483 964.827 376.9C965.41 376.318 965.77 375.513 965.77 374.624V355.308C965.77 354.419 965.41 353.614 964.827 353.031C964.245 352.449 963.44 352.089 962.551 352.089Z" fill="#EAC0A2" stroke="#141C3A" stroke-width="8"/>
<path d="M955.106 330.962V349.272" stroke="#141C3A" stroke-width="8" stroke-linecap="square"/>
<path fill-rule="evenodd" clip-rule="evenodd" d="M864.766 385.569C858.232 385.569 852.316 388.218 848.034 392.5C844.125 396.409 841.577 401.681 841.163 407.541H888.368C887.955 401.681 885.407 396.409 881.497 392.5C877.215 388.218 871.3 385.569 864.766 385.569Z" fill="#FFF9F2" stroke="#141C3A" stroke-width="8.4"/>
<path d="M866.375 387.501C866.375 386.612 865.654 385.891 864.765 385.891C863.876 385.891 863.155 386.612 863.155 387.501V389.513C863.155 390.402 863.876 391.123 864.765 391.123C865.654 391.123 866.375 390.402 866.375 389.513V387.501Z" fill="#141C3A"/>
<path fill-rule="evenodd" clip-rule="evenodd" d="M125.127 360.137H27.7427C21.1863 360.137 15.2506 362.794 10.9541 367.091C6.65749 371.387 4 377.323 4 383.879C4 390.436 6.65749 396.371 10.9541 400.668C15.2506 404.965 21.1863 407.622 27.7427 407.622H125.127C125.793 407.622 126.397 407.352 126.834 406.915C127.271 406.478 127.541 405.874 127.541 405.208V401.471C127.541 400.626 127.215 399.853 126.678 399.276C126.141 398.7 125.393 398.319 124.55 398.259C118.98 397.863 114.839 396.449 112.063 394.151C109.137 391.73 107.621 388.324 107.621 383.879C107.621 379.428 109.141 375.989 112.1 373.51C114.896 371.167 119.071 369.679 124.704 369.172C125.51 369.076 126.218 368.687 126.725 368.118C127.234 367.547 127.541 366.794 127.541 365.976V362.551C127.541 361.885 127.271 361.281 126.834 360.844C126.397 360.407 125.793 360.137 125.127 360.137Z" fill="#42B0D3" stroke="#141C3A" stroke-width="8"/>
<path fill-rule="evenodd" clip-rule="evenodd" d="M120.211 369.392H27.3395C23.339 369.392 19.7173 371.014 17.0957 373.635C14.474 376.257 12.8525 379.879 12.8525 383.879C12.8525 387.88 14.474 391.501 17.0957 394.123C19.7173 396.745 23.339 398.366 27.3395 398.366C71.1608 398.366 102.321 398.45 120.819 398.617C117.581 397.742 113.868 396.503 111.231 393.795C109.113 391.62 107.62 388.522 107.62 383.879C107.62 379.192 109.141 376.083 111.291 373.915C113.758 371.427 117.149 370.214 120.211 369.392Z" fill="#FFF9F2" stroke="#141C3A" stroke-width="8"/>
<path fill-rule="evenodd" clip-rule="evenodd" d="M25.6992 387.501H107.047C107.919 387.501 108.627 388.222 108.627 389.111C108.627 390 107.919 390.72 107.047 390.72H25.6992C24.8268 390.72 24.1196 390 24.1196 389.111C24.1196 388.222 24.8268 387.501 25.6992 387.501Z" fill="#141C3A"/>
<path fill-rule="evenodd" clip-rule="evenodd" d="M25.6992 377.038H107.047C107.919 377.038 108.627 377.759 108.627 378.648C108.627 379.537 107.919 380.258 107.047 380.258H25.6992C24.8268 380.258 24.1196 379.537 24.1196 378.648C24.1196 377.759 24.8268 377.038 25.6992 377.038Z" fill="#141C3A"/>
<path d="M103.057 279.798C101.082 278.042 99.1071 276.286 97.1322 274.53C93.9851 271.735 90.8469 268.932 87.6997 266.137C86.9783 265.501 86.2569 264.856 85.5445 264.22C85.5445 265.062 85.5445 265.913 85.5445 266.755C87.5194 264.999 89.4942 263.243 91.4691 261.488C94.6163 258.693 97.7545 255.889 100.902 253.094C101.623 252.458 102.344 251.813 103.057 251.177C103.76 250.55 103.751 249.269 103.057 248.642C102.308 247.952 101.262 247.97 100.505 248.642C98.53 250.398 96.5551 252.154 94.5802 253.909C91.433 256.704 88.2949 259.508 85.1477 262.303C84.4263 262.939 83.7049 263.584 82.9925 264.22C82.2981 264.838 82.2981 266.137 82.9925 266.755C84.9673 268.511 86.9422 270.266 88.9171 272.022C92.0643 274.817 95.2025 277.621 98.3496 280.416C99.0711 281.052 99.7925 281.697 100.505 282.333C101.208 282.96 102.372 283.076 103.057 282.333C103.688 281.652 103.805 280.469 103.057 279.798Z" fill="#141C3A"/>
<path d="M133.13 251.181C135.105 252.937 137.08 254.693 139.055 256.449C142.202 259.243 145.34 262.047 148.487 264.842C149.209 265.478 149.93 266.123 150.643 266.759C150.643 265.917 150.643 265.066 150.643 264.224C148.668 265.98 146.693 267.736 144.718 269.491C141.571 272.286 138.433 275.09 135.285 277.885C134.564 278.521 133.843 279.166 133.13 279.802C132.427 280.429 132.436 281.71 133.13 282.337C133.879 283.027 134.925 283.009 135.682 282.337C137.657 280.581 139.632 278.825 141.607 277.07C144.754 274.275 147.892 271.471 151.039 268.676C151.761 268.04 152.482 267.395 153.195 266.759C153.889 266.141 153.889 264.842 153.195 264.224C151.22 262.468 149.245 260.713 147.27 258.957C144.123 256.162 140.985 253.358 137.837 250.563C137.116 249.927 136.395 249.282 135.682 248.646C134.979 248.019 133.815 247.903 133.13 248.646C132.499 249.327 132.382 250.51 133.13 251.181Z" fill="#141C3A"/>
<path d="M111.661 290.347C112.202 288.734 112.734 287.122 113.275 285.501C114.565 281.622 115.854 277.752 117.144 273.873C118.695 269.197 120.246 264.53 121.806 259.854C123.15 255.814 124.493 251.774 125.837 247.734C126.477 245.773 127.199 243.82 127.794 241.831C127.803 241.804 127.812 241.777 127.821 241.75C128.118 240.864 127.478 239.753 126.558 239.547C125.566 239.323 124.656 239.842 124.34 240.801C123.799 242.413 123.267 244.026 122.726 245.647C121.436 249.526 120.147 253.396 118.857 257.274C117.306 261.95 115.755 266.617 114.195 271.293C112.851 275.333 111.508 279.373 110.164 283.413C109.524 285.366 108.802 287.319 108.207 289.308C108.198 289.335 108.189 289.361 108.18 289.388C107.883 290.275 108.523 291.386 109.443 291.592C110.435 291.816 111.345 291.296 111.661 290.347Z" fill="#141C3A"/>
</g>
<defs>
<clipPath id="clip0_15_103">
<rect width="1008" height="412" fill="white"/>
</clipPath>
</defs>
</svg>
