<svg width="300" height="683" viewBox="0 0 300 683" fill="none" xmlns="http://www.w3.org/2000/svg">
<g clip-path="url(#clip0_133_40)">
<path d="M15.8798 745.923C8.15451 724.463 4.29185 700.429 4.29185 675.966C4.29185 651.502 8.58369 627.468 16.309 606.009C24.0343 584.549 36.0515 563.09 51.073 544.206L47.6395 541.631C32.1888 560.944 19.7425 582.833 12.0172 604.721C4.29185 626.18 0 651.073 0 675.966C0 700.858 4.29185 725.751 12.0172 747.639C19.7425 769.528 32.1888 791.416 47.6395 810.729L51.073 808.154C35.6223 788.841 23.6052 767.382 15.8798 745.923Z" fill="#FFF9F2"/>
<path d="M60.9442 730.043C54.9356 713.304 51.9314 695.279 51.9314 675.965C51.9314 656.652 54.9356 638.626 60.9442 621.888C66.9528 605.15 75.9657 589.27 87.9829 574.249L84.5494 571.674C72.103 587.124 62.661 603.433 56.6524 620.601C50.6438 637.768 47.6395 656.223 47.2103 675.965C47.2103 695.708 50.6438 714.592 56.6524 731.33C62.661 748.497 72.103 764.806 84.5494 780.257L87.9829 777.682C75.9657 762.661 66.9528 746.781 60.9442 730.043Z" fill="#FFF9F2"/>
<path d="M45.9228 735.193C39.4851 716.738 36.0516 696.995 36.0516 675.965C36.0516 654.935 39.4851 634.764 45.9228 616.738C52.3606 598.283 62.2319 580.686 75.5366 564.377L72.1031 561.802C58.3692 578.541 48.4979 596.566 41.631 615.45C34.764 634.335 31.3306 654.506 31.3306 676.395C31.3306 697.854 34.764 718.455 41.631 737.339C48.0688 756.223 58.3692 774.249 72.1031 790.987L75.5366 788.412C62.661 771.244 52.3606 753.648 45.9228 735.193Z" fill="#FFF9F2"/>
<path d="M15.8799 675.965C15.8799 699.571 19.7425 721.888 27.0387 742.06C34.3348 762.232 45.4936 782.403 60.0859 800.429L63.5194 797.854C49.3563 780.257 38.1975 760.515 31.3305 740.772C24.0344 720.601 20.6009 699.141 20.6009 675.965C20.6009 652.789 24.4636 631.33 31.3305 611.159C38.1975 591.416 49.3563 571.674 63.5194 554.077L60.0859 551.502C45.4936 569.528 34.3348 589.699 27.0387 609.871C19.7425 630.043 15.8799 652.36 15.8799 675.965Z" fill="#FFF9F2"/>
<path d="M72.103 625.751C66.5236 641.201 63.9485 657.94 63.5193 675.965C63.5193 693.991 66.5236 710.729 72.103 726.18C77.6824 741.631 85.8369 756.652 97.4249 770.386L100.858 767.811C89.6995 754.077 81.545 739.914 76.3948 724.892C71.2446 709.871 68.2403 693.562 68.2403 675.965C68.2403 658.369 71.2446 642.06 76.3948 627.038C81.545 612.017 89.6995 597.854 100.858 584.12L97.4249 581.545C85.8369 595.279 77.2532 610.3 72.103 625.751Z" fill="#FFF9F2"/>
<path d="M96.5666 499.141C111.159 487.124 125.751 476.395 139.485 466.524L141.631 464.807C170.815 443.777 196.137 424.463 212.446 404.292C228.755 384.12 235.622 364.378 236.052 338.197C235.622 312.017 228.755 292.275 212.446 272.103C196.137 251.931 170.815 232.618 141.631 211.588L139.056 215.021C167.811 236.051 193.133 254.936 209.013 274.678C224.464 293.991 231.331 312.875 231.76 338.197C231.331 363.519 224.464 382.403 209.013 401.717C193.133 421.459 167.811 440.772 139.056 461.373L136.91 463.09C122.747 473.391 108.584 483.691 93.5623 496.137C74.6781 512.017 60.0859 526.18 47.6395 541.631L51.073 544.206C63.5194 529.184 77.6824 514.592 96.5666 499.141Z" fill="#FFF9F2"/>
<path d="M103.863 508.154C85.8369 523.176 71.6738 536.91 60.0858 551.502L63.5193 554.077C75.1073 539.485 88.8412 526.18 106.867 511.159C121.459 499.142 135.622 488.841 149.785 478.541L151.502 477.253L148.927 473.82L147.21 475.107C133.047 485.408 118.455 496.137 103.863 508.154Z" fill="#FFF9F2"/>
<path d="M166.094 506.009L169.957 503.004L167.382 499.571L163.519 502.575C136.051 522.747 107.296 543.777 84.9785 571.245L88.412 573.82C110.3 546.781 138.627 526.18 166.094 506.009Z" fill="#FFF9F2"/>
<path d="M116.738 523.605C130.901 512.017 145.494 501.287 159.227 491.416L160.515 490.558L157.94 487.124L156.652 487.983C142.489 498.283 127.897 509.013 113.734 520.601C96.5665 534.764 83.2618 548.068 72.103 561.802L75.5365 564.377C86.6953 550.644 99.5708 537.768 116.738 523.605Z" fill="#FFF9F2"/>
<path d="M174.678 514.163C146.781 534.334 118.455 555.364 96.9957 581.545L100.429 584.12C121.459 558.369 149.785 537.768 177.253 517.596L178.97 516.309L176.395 512.875L174.678 514.163Z" fill="#FFF9F2"/>
<path d="M148.498 474.249L151.073 477.682C182.403 454.935 207.725 436.051 224.893 414.163C242.918 391.845 251.931 366.953 251.931 338.197C251.931 309.013 243.348 284.549 224.893 262.231C207.296 240.343 181.974 221.459 151.073 198.712L148.498 202.146C179.399 224.463 204.292 243.348 221.459 264.807C239.056 286.695 247.639 309.871 247.639 338.197C247.639 366.523 239.056 389.699 221.459 411.588C204.292 433.047 179.399 451.502 148.498 474.249Z" fill="#FFF9F2"/>
<path d="M249.785 434.335L246.352 431.759C225.322 457.94 196.996 478.541 169.528 498.712L167.382 500.429L169.957 503.863L172.103 502.146C199.571 481.545 228.326 460.515 249.785 434.335Z" fill="#FFF9F2"/>
<path d="M237.339 424.034L233.906 421.459C214.163 445.923 186.695 466.094 157.94 487.124L160.515 490.558C188.412 469.957 217.167 449.356 237.339 424.034Z" fill="#FFF9F2"/>
<path d="M180.687 509.871L176.395 512.875L178.97 516.309L182.833 513.305C210.3 493.133 239.056 472.103 261.803 444.206L258.369 441.631C236.481 469.099 208.155 489.699 180.687 509.871Z" fill="#FFF9F2"/>
<path d="M283.691 338.197C283.691 319.742 280.687 302.575 275.107 287.124C269.528 271.245 260.944 256.223 249.356 242.06L245.923 244.635C257.082 258.369 265.665 273.391 270.815 288.412C276.395 303.433 278.97 320.172 278.97 338.197C278.97 356.223 275.966 372.961 270.815 387.983C265.665 403.004 257.082 418.026 245.923 431.759L249.356 434.335C260.944 420.172 269.528 405.15 275.107 389.27C280.687 373.391 283.691 356.223 283.691 338.197Z" fill="#FFF9F2"/>
<path d="M267.811 338.197C267.811 321.459 265.236 306.438 260.086 292.275C254.936 278.112 247.21 264.807 236.91 251.931L233.476 254.506C243.348 266.953 251.073 280.258 255.794 293.562C260.515 306.867 263.09 321.889 263.09 337.768C263.09 353.648 260.515 368.67 255.794 381.974C251.073 395.708 243.348 408.584 233.476 421.03L236.91 423.605C247.21 410.73 254.936 396.996 260.086 383.262C265.236 369.957 267.811 354.506 267.811 338.197Z" fill="#FFF9F2"/>
<path d="M286.266 282.833C292.275 299.571 295.279 318.026 295.279 337.768C295.279 357.511 292.275 375.966 286.266 392.704C280.258 409.442 271.245 425.751 258.798 441.202L262.232 443.777C274.678 428.326 284.549 411.588 290.558 393.991C296.567 376.824 300 357.511 300 337.768C300 317.597 296.567 298.712 290.558 281.545C284.549 263.948 275.107 247.639 262.232 231.76L258.798 234.335C271.245 249.785 280.258 266.094 286.266 282.833Z" fill="#FFF9F2"/>
<path d="M172.103 174.249L169.957 172.532L167.382 175.965L169.528 177.682C196.996 197.854 225.322 218.455 246.352 244.635L249.785 242.06C228.326 215.451 199.571 194.42 172.103 174.249Z" fill="#FFF9F2"/>
<path d="M160.515 185.408L157.94 188.841C187.124 209.871 214.163 230.043 233.906 254.506L237.339 251.931C217.167 227.039 189.7 206.867 160.515 185.408Z" fill="#FFF9F2"/>
<path d="M180.687 166.095C208.155 186.266 236.052 206.867 258.798 234.335L262.232 231.76C239.485 203.863 211.159 182.833 183.691 162.661L179.399 159.657L176.824 163.09L180.687 166.095Z" fill="#FFF9F2"/>
<path d="M96.5666 176.824C77.6824 161.373 63.5194 147.21 51.073 131.76L47.6395 134.335C60.0859 149.785 74.6781 164.378 93.5623 179.828C108.584 192.275 122.747 202.575 136.91 212.875L139.056 214.592L141.631 211.159L139.485 209.442C125.751 199.571 111.159 188.841 96.5666 176.824Z" fill="#FFF9F2"/>
<path d="M103.863 167.811C118.455 179.828 133.047 190.558 146.781 200.429L148.498 201.717L151.073 198.283L149.356 196.996C135.193 186.695 121.03 176.395 106.438 164.377C88.412 149.785 74.6781 136.051 63.0901 121.459L60.0858 124.463C71.6738 139.056 85.8369 152.789 103.863 167.811Z" fill="#FFF9F2"/>
<path d="M166.094 169.957C138.627 149.785 110.3 129.185 88.412 101.717L84.9785 104.292C107.725 132.189 136.051 152.79 163.519 172.961L167.382 175.966L169.957 172.532L166.094 169.957Z" fill="#FFF9F2"/>
<path d="M159.227 184.549C145.064 174.249 130.901 163.948 116.738 152.361C99.5709 138.197 86.6953 125.322 75.9657 112.017L72.5322 114.592C83.691 128.326 96.9957 141.631 114.163 155.794C128.326 167.382 142.918 178.112 156.652 188.412L157.94 189.27L160.515 185.837L159.227 184.549Z" fill="#FFF9F2"/>
<path d="M174.678 161.803L176.395 163.09L178.97 159.657L177.253 158.369C149.785 138.197 121.459 117.597 100.429 91.8456L96.9957 94.4206C118.455 120.601 147.21 141.631 174.678 161.803Z" fill="#FFF9F2"/>
<path d="M16.309 69.9569C8.58369 48.4977 4.29185 24.4634 4.29185 -0.000116893H0C0 24.8926 4.29185 49.7853 12.0172 71.6737C19.7425 93.5622 32.1888 115.451 47.6395 134.764L51.073 132.189C35.6223 112.875 23.6051 91.4161 16.309 69.9569Z" fill="#FFF9F2"/>
<path d="M20.1717 0.000122547H15.8799C15.8799 23.6053 19.7425 45.923 27.0387 66.0946C34.3348 86.2663 45.4936 106.438 60.0859 124.464L63.5194 121.889C49.3563 104.292 38.1975 84.5494 31.3305 64.8069C24.0344 44.6352 20.1717 23.1761 20.1717 0.000122547Z" fill="#FFF9F2"/>
<path d="M57.0816 55.3649C63.0902 72.5323 72.5322 88.8411 84.9786 104.292L88.4121 101.717C76.3949 86.6953 67.382 70.8153 61.3734 54.0771C55.3648 37.3389 52.3606 19.3133 52.3606 -2.92915e-05H48.0687C47.6395 19.7425 51.073 38.6267 57.0816 55.3649Z" fill="#FFF9F2"/>
<path d="M36.0516 -2.45911e-05H31.7598C31.7598 21.4592 35.1932 42.0601 42.0602 60.9442C48.498 79.8283 58.7984 97.8541 72.5323 114.592L75.9658 112.017C62.6611 95.708 52.7898 78.1117 46.352 59.6567C39.4851 41.2018 36.0516 21.03 36.0516 -2.45911e-05Z" fill="#FFF9F2"/>
<path d="M72.103 50.2145C77.6824 65.6651 85.8369 80.6865 97.4249 94.4204L100.858 91.8454C89.6996 78.1115 81.5451 63.9484 76.3948 48.927C71.2446 33.9055 68.2403 17.5964 68.2403 -0.00018692H63.9485C63.9485 18.0256 66.5236 34.7638 72.103 50.2145Z" fill="#FFF9F2"/>
</g>
<defs>
<clipPath id="clip0_133_40">
<rect width="300" height="683" fill="white"/>
</clipPath>
</defs>
</svg>
